<svg width="268" height="33" viewBox="0 0 618 76" xmlns="http://www.w3.org/2000/svg"><title>boi-logo-default</title><g fill="#FFF" fill-rule="evenodd"><path d="M137.604 24.276h9.86l-11.79 14.395 13.78 22.442h-11.53l-11.82-20.67 8.472-10.3c1.412-1.698 2.537-3.723 3.028-5.866M11.03 39.107v16.86h6.745c6.127 0 8.92-3.138 8.87-8.784-.05-5.655-3.72-8.092-8.87-8.076H11.03zm0-18.67v13.51h5.913c4.87-.014 7.922-2.073 7.93-7.076.006-5.08-3.59-6.44-7.902-6.432h-5.94zm9.915 40.675H.91V22.51C.883 19.34.67 17.535 0 15.32h22.952c6.375.01 12.082 2.956 12.082 10.166 0 6.944-4.97 9.453-9.77 10.51 4.778.27 12.134 3.566 12.134 11.86 0 9.012-7.528 13.286-16.453 13.256zM199.99 27.268v33.844h9.356v-25.68h6.595v-5.415h-6.594v-4.25c0-3.51 1.895-6.11 5.165-6.102 2.6.005 5.068.918 6.85 2.155v-5.998c-1.36-.7-4.29-1.548-8.126-1.548-9.388 0-13.243 5.72-13.243 12.994M177.705 56.735c-5.254 0-7.283-4.312-7.283-13.86 0-9.985 2.01-14.11 7.283-14.152 5.036-.04 7.19 4.49 7.285 14.153.096 9.547-2.032 13.86-7.285 13.86zm.057-33.42c-9.143.058-17.234 5.393-17.196 19.56.038 14.17 8.334 19.316 17.196 19.316 8.86 0 17.15-5.212 17.084-19.314-.067-14.188-7.522-19.622-17.084-19.56zM116.394 61.112s-.006-36.242 0-38.903c.005-2.584-.236-5.086-.996-6.89h10.338v45.792h-9.342M58.904 43.02c-4.103 1.182-8.19 3.323-8.174 7.616.01 3.56 2.008 5.36 5.49 5.36 3.235 0 6.245-1.63 7.413-2.72v-11.5c-1.223.31-3.05.757-4.73 1.243zM58 23.292c6.984 0 14.948.99 14.948 11.787v18.33c0 3.452.38 6.226.828 7.702H64.98c-.16-.53-.45-1.724-.652-2.588-1.178.833-5.146 3.655-11.445 3.66-7.02.003-11.72-3.67-11.754-10.634-.04-7.094 4.694-10.5 11.5-12.164 2.974-.725 9.554-2.248 11.003-2.672V34.4c0-4.737-2.63-6.054-5.516-6.054-3.517 0-6.683 2.182-6.71 6.37l-8.55.03c0-4.922 3.237-11.463 15.143-11.453zM98.945 23.332c-4.92 0-9.125 2.787-10.525 3.7v-2.74H78.203c.598 2.11.938 4.45.934 7.033-.008 2.66 0 29.81 0 29.81h9.283V32.8c1.473-1.197 4.127-3.164 7.084-3.164 4.566 0 5.652 2.718 5.648 8.076v23.424h9.278V37.253c0-5.936-1.01-13.92-11.485-13.92M260.85 29.02v-4.73h-10.286c.617 1.976.947 4.458.942 7.038-.006 2.662 0 29.784 0 29.784h9.343V40.036c-.03-6.257 3.882-9.443 10.568-9.41v-7.29c-6.01-.01-9.723 3.63-10.57 5.684M425.162 52.366c-.67 1.2-3.658 4.026-6.78 4.026-4.134 0-7.67-2.334-7.652-13.84.014-10.998 3.745-13.472 7.58-13.472 3.3 0 5.995 2.448 6.852 3.927v19.36zm-.95-37.046c.733 2.048.956 4.293.95 6.875 0 0-.002 4.457 0 4.524-1.933-1.773-4.984-3.413-9.318-3.403-5.623.01-14.998 3.244-15.024 19.258-.02 15.283 7.43 19.64 14.46 19.584 5.566-.046 9.54-3.538 9.882-3.848v2.755h9.363V15.32h-10.312zM234.473 61.112s-.01-36.19 0-38.85c.007-2.582-.36-5.496-.85-6.942h10.954v45.792h-10.104M312.11 61.112s-.006-36.242 0-38.903c.005-2.584-.235-5.086-.993-6.89h10.336v45.792h-9.344M282.826 38.93h14.206c-.237-4.504-1.654-10.197-7.055-10.192-5.407.007-6.688 5.834-7.15 10.193zm24.142 3.31c-.004.535-.01 1.066-.046 1.603h-24.204c.017 7.967 1.62 12.902 7.26 12.92 4.5.01 6.235-3.278 6.823-8.082l9.714.012c-1.933 10.21-9.157 13.518-16.537 13.514-9.377-.006-17.17-4.96-17.15-19.913.02-12.908 7.662-18.95 17.15-18.963 9.19-.013 17.037 6.003 16.99 18.91zM344.3 43.02c-4.103 1.182-8.19 3.323-8.173 7.616.01 3.56 2.008 5.36 5.488 5.36 3.237 0 6.246-1.63 7.414-2.72v-11.5c-1.223.31-3.05.757-4.73 1.243zm-.904-19.727c6.985 0 14.95.99 14.95 11.787v18.33c0 3.452.378 6.226.827 7.702h-8.798c-.158-.53-.45-1.724-.65-2.588-1.178.833-5.147 3.655-11.446 3.66-7.02.003-11.72-3.67-11.755-10.634-.04-7.094 4.696-10.5 11.5-12.164 2.975-.725 9.555-2.248 11.004-2.672V34.4c0-4.737-2.632-6.054-5.516-6.054-3.518 0-6.684 2.182-6.71 6.37l-8.55.03c0-4.922 3.236-11.463 15.142-11.453zM384.343 23.332c-4.92 0-9.125 2.787-10.526 3.7v-2.74H363.6c.597 2.11.937 4.45.933 7.033-.008 2.66 0 29.81 0 29.81h9.284V32.8c1.473-1.197 4.127-3.164 7.084-3.164 4.568 0 5.653 2.718 5.65 8.076v23.424h9.276V37.253c0-5.936-1.01-13.92-11.483-13.92M549.078 29.47c1.103-6.322 28.66-7.188 28.66-13.68 0-.16.144-.31.315-.31.165 0 .29.15.29.31v6.863c0 8.143-27.704 7.118-29.015 14.935-.05.173-.08.32-.25.32-.18 0-.217-.147-.246-.32-1.33-7.817-29.043-6.792-29.043-14.935V15.79c0-.16.14-.31.32-.31.154 0 .306.15.306.31 0 6.492 27.54 7.358 28.662 13.68"/><path d="M549.078 43.408c1.103-6.332 28.66-7.196 28.66-13.67 0-.18.144-.3.315-.3.165 0 .29.12.29.3v6.836c0 8.172-27.704 7.115-29.015 14.935-.05.18-.08.322-.25.322-.18 0-.217-.14-.246-.323-1.33-7.82-29.043-6.764-29.043-14.936v-6.836c0-.18.14-.3.32-.3.154 0 .306.12.306.3 0 6.474 27.54 7.338 28.662 13.67"/><path d="M549.078 57.71c1.103-6.34 28.66-7.206 28.66-13.698 0-.16.144-.303.315-.303.165 0 .29.14.29.302v6.854c0 8.17-27.704 7.095-29.015 14.955-.05.162-.08.302-.25.302-.18 0-.217-.14-.246-.3-1.33-7.86-29.043-6.785-29.043-14.956v-6.854c0-.16.14-.303.32-.303.154 0 .306.14.306.302 0 6.492 27.54 7.358 28.662 13.7"/><path d="M480.757 38.132c0-20.694 30.583-37.458 68.32-37.458 37.738 0 68.312 16.764 68.312 37.458 0 20.663-30.575 37.418-68.312 37.418-37.738 0-68.32-16.755-68.32-37.418m68.32 33.698c32.48 0 58.828-15.095 58.828-33.718 0-18.623-26.347-33.698-58.828-33.698-32.5 0-58.834 15.075-58.834 33.698s26.334 33.718 58.834 33.718"/></g></svg>