<?xml version="1.0" encoding="UTF-8"?>
<svg width="54px" height="30px" viewBox="0 0 54 30" version="1.1" xmlns="http://www.w3.org/2000/svg" xmlns:xlink="http://www.w3.org/1999/xlink">
    <!-- Generator: Sketch 53.1 (72631) - https://sketchapp.com -->
    <title>Artboard</title>
    <desc>Created with Sketch.</desc>
    <g id="Artboard" stroke="none" stroke-width="1" fill="none" fill-rule="evenodd">
        <path d="M27.0019761,16.8894256 C27.4379062,14.3868786 38.3290444,14.0454066 38.3290444,11.4867381 C38.3290444,11.4155981 38.3859564,11.3681714 38.4535394,11.3681714 C38.5187511,11.3681714 38.5681539,11.4155981 38.5681539,11.4867381 L38.5681539,14.1884771 C38.5681539,17.4182329 27.618918,17.000483 27.1007817,20.0911207 C27.0810206,20.1622607 27.0691639,20.2183822 27.0019761,20.2183822 C26.9308361,20.2183822 26.9162129,20.1630511 26.9047514,20.0907255 C26.3791059,17.0000878 15.426313,17.4174425 15.426313,14.1876866 L15.426313,11.4859477 C15.426313,11.4148077 15.4816441,11.367381 15.5527841,11.367381 C15.6136483,11.367381 15.6737221,11.4148077 15.6737221,11.4859477 C15.6737221,14.0446162 26.5581416,14.3860882 27.0015809,16.8886352 L27.0019761,16.8894256 Z M27.0019761,11.3808185 C27.4379062,8.88222378 38.3290444,8.53996136 38.3290444,5.97417882 C38.3290444,5.91094326 38.3859564,5.85165993 38.4535394,5.85165993 C38.5187511,5.85165993 38.5681539,5.91094326 38.5681539,5.97417882 L38.5681539,8.68658879 C38.5681539,11.9048832 27.618918,11.4997804 27.1007817,14.5892324 C27.0810206,14.6576058 27.0691639,14.7157035 27.0019761,14.7157035 C26.9308361,14.7157035 26.9162129,14.6576058 26.9047514,14.5892324 C26.3791059,11.4997804 15.426313,11.9048832 15.426313,8.68658879 L15.426313,5.97417882 C15.426313,5.91094326 15.4816441,5.85165993 15.5527841,5.85165993 C15.6136483,5.85165993 15.6737221,5.91094326 15.6737221,5.97417882 C15.6737221,8.53996136 26.5581416,8.88222378 27.0015809,11.3808185 L27.0019761,11.3808185 Z M27.0019761,22.5418936 C27.4379062,20.0361848 38.3290444,19.6939224 38.3290444,17.1281398 C38.3290444,17.0649043 38.3859564,17.0083875 38.4535394,17.0083875 C38.5187511,17.0083875 38.5681539,17.0637186 38.5681539,17.1277446 L38.5681539,19.8365976 C38.5681539,23.065563 27.618918,22.6406991 27.1007817,25.7471456 C27.0810206,25.8111716 27.0691639,25.8665027 27.0019761,25.8665027 C26.9308361,25.8665027 26.9162129,25.8111716 26.9047514,25.7479361 C26.3791059,22.6414895 15.426313,23.0663534 15.426313,19.8369928 L15.426313,17.1281398 C15.426313,17.0649043 15.4816441,17.0083875 15.5527841,17.0083875 C15.6136483,17.0083875 15.6737221,17.0637186 15.6737221,17.1277446 C15.6737221,19.6935271 26.5581416,20.0357896 27.0015809,22.5422888 L27.0019761,22.5418936 Z M-4.26325641e-14,14.8042333 C-4.26325641e-14,6.62550501 12.0870806,-1.0658141e-14 27.0015809,-1.0658141e-14 C41.9164764,-1.0658141e-14 54,6.62550501 54,14.8042333 C54,22.9707096 41.9160812,29.5926576 27.0015809,29.5926576 C12.0866854,29.5926576 -4.26325641e-14,22.9707096 -4.26325641e-14,14.8042333 Z M27.0015809,28.1224311 C39.838398,28.1224311 50.2517126,22.1565519 50.2517126,14.7963288 C50.2517126,7.43610574 39.8387933,1.47813104 27.0015809,1.47813104 C14.1568593,1.47813104 3.74907781,7.43610574 3.74907781,14.7963288 C3.74907781,22.1565519 14.1568593,28.1224311 27.0015809,28.1224311 Z" id="Combined-Shape" fill="#FFFFFF"></path>
    </g>
</svg>